HIERARCHY
ROOT hip
{
  OFFSET 0 0 0
  CHANNELS 6 Xposition Yposition Zposition Zrotation Yrotation Xrotation
  JOINT abdomen
  {
    OFFSET 0 20.6881 -0.73152
    CHANNELS 3 Zrotation Xrotation Yrotation
    JOINT chest
    {
      OFFSET 0 11.7043 -0.48768
      CHANNELS 3 Zrotation Xrotation Yrotation
      JOINT neck
      {
        OFFSET 0 22.1894 -2.19456
        CHANNELS 3 Zrotation Xrotation Yrotation
        JOINT head
        {
          OFFSET -0.24384 7.07133 1.2192
          CHANNELS 3 Zrotation Xrotation Yrotation
          JOINT leftEye
          {
            OFFSET 4.14528 8.04674 8.04672
            CHANNELS 3 Zrotation Xrotation Yrotation
            End Site
            {
              OFFSET 1 0 0
            }
          }
          JOINT rightEye
          {
            OFFSET -3.6576 8.04674 8.04672
            CHANNELS 3 Zrotation Xrotation Yrotation
            End Site
            {
              OFFSET 1 0 0
            }
          }
        }
      }
      JOINT rCollar
      {
        OFFSET -2.68224 19.2634 -4.8768
        CHANNELS 3 Zrotation Xrotation Yrotation
        JOINT rShldr
        {
          OFFSET -8.77824 -1.95073 1.46304
          CHANNELS 3 Zrotation Xrotation Yrotation
          JOINT rForeArm
          {
            OFFSET -28.1742 -1.7115 0.48768
            CHANNELS 3 Zrotation Xrotation Yrotation
            JOINT rHand
            {
              OFFSET -22.5879 0.773209 7.07136
              CHANNELS 3 Zrotation Xrotation Yrotation
              JOINT rThumb1
              {
                OFFSET -1.2192 -0.487915 3.41376
                CHANNELS 3 Zrotation Xrotation Yrotation
                JOINT rThumb2
                {
                  OFFSET -3.37035 -0.52449 3.41376
                  CHANNELS 3 Zrotation Xrotation Yrotation
                  End Site
                  {
                    OFFSET -1.78271 -1.18214 1.43049
                  }
                }
              }
              JOINT rIndex1
              {
                OFFSET -7.75947 0.938293 5.60832
                CHANNELS 3 Zrotation Xrotation Yrotation
                JOINT rIndex2
                {
                  OFFSET -2.54057 -0.884171 1.56538
                  CHANNELS 3 Zrotation Xrotation Yrotation
                  End Site
                  {
                    OFFSET -1.62519 -0.234802 1.16502
                  }
                }
              }
              JOINT rMid1
              {
                OFFSET -8.24714 1.18213 3.41376
                CHANNELS 3 Zrotation Xrotation Yrotation
                JOINT rMid2
                {
                  OFFSET -3.10165 -0.590103 1.0647
                  CHANNELS 3 Zrotation Xrotation Yrotation
                  End Site
                  {
                    OFFSET -2.48547 -0.328903 0.83742
                  }
                }
              }
              JOINT rRing1
              {
                OFFSET -8.82822 0.546677 1.51678
                CHANNELS 3 Zrotation Xrotation Yrotation
                JOINT rRing2
                {
                  OFFSET -2.60934 -0.819778 -0.0198488
                  CHANNELS 3 Zrotation Xrotation Yrotation
                  End Site
                  {
                    OFFSET -2.33842 -0.294052 0.168128
                  }
                }
              }
              JOINT rPinky1
              {
                OFFSET -8.27202 -0.0477905 -0.4584
                CHANNELS 3 Zrotation Xrotation Yrotation
                JOINT rPinky2
                {
                  OFFSET -1.82734 -0.647385 -0.700984
                  CHANNELS 3 Zrotation Xrotation Yrotation
                  End Site
                  {
                    OFFSET -1.69225 -0.51767 -0.607171
                  }
                }
              }
            }
          }
        }
      }
      JOINT lCollar
      {
        OFFSET 2.68224 19.2634 -4.8768
        CHANNELS 3 Zrotation Xrotation Yrotation
        JOINT lShldr
        {
          OFFSET 8.77824 -1.95073 1.46304
          CHANNELS 3 Zrotation Xrotation Yrotation
          JOINT lForeArm
          {
            OFFSET 28.1742 -1.7115 0.48768
            CHANNELS 3 Zrotation Xrotation Yrotation
            JOINT lHand
            {
              OFFSET 22.5879 0.773209 7.07136
              CHANNELS 3 Zrotation Xrotation Yrotation
              JOINT lThumb1
              {
                OFFSET 1.2192 -0.487915 3.41376
                CHANNELS 3 Zrotation Xrotation Yrotation
                JOINT lThumb2
                {
                  OFFSET 3.37035 -0.52449 3.41376
                  CHANNELS 3 Zrotation Xrotation Yrotation
                  End Site
                  {
                    OFFSET 1.78271 -1.18214 1.43049
                  }
                }
              }
              JOINT lIndex1
              {
                OFFSET 7.75947 0.938293 5.60832
                CHANNELS 3 Zrotation Xrotation Yrotation
                JOINT lIndex2
                {
                  OFFSET 2.54057 -0.884171 1.56538
                  CHANNELS 3 Zrotation Xrotation Yrotation
                  End Site
                  {
                    OFFSET 1.62519 -0.234802 1.16502
                  }
                }
              }
              JOINT lMid1
              {
                OFFSET 8.24714 1.18213 3.41376
                CHANNELS 3 Zrotation Xrotation Yrotation
                JOINT lMid2
                {
                  OFFSET 3.10165 -0.590103 1.0647
                  CHANNELS 3 Zrotation Xrotation Yrotation
                  End Site
                  {
                    OFFSET 2.48547 -0.328903 0.83742
                  }
                }
              }
              JOINT lRing1
              {
                OFFSET 8.82822 0.546677 1.51678
                CHANNELS 3 Zrotation Xrotation Yrotation
                JOINT lRing2
                {
                  OFFSET 2.60934 -0.819778 -0.0198488
                  CHANNELS 3 Zrotation Xrotation Yrotation
                  End Site
                  {
                    OFFSET 2.33842 -0.294052 0.168128
                  }
                }
              }
              JOINT lPinky1
              {
                OFFSET 8.27202 -0.0477905 -0.4584
                CHANNELS 3 Zrotation Xrotation Yrotation
                JOINT lPinky2
                {
                  OFFSET 1.82734 -0.647385 -0.700984
                  CHANNELS 3 Zrotation Xrotation Yrotation
                  End Site
                  {
                    OFFSET 1.69225 -0.51767 -0.607171
                  }
                }
              }
            }
          }
        }
      }
    }
  }
  JOINT rButtock
  {
    OFFSET -8.77824 4.35084 1.2192
    CHANNELS 3 Zrotation Xrotation Yrotation
    JOINT rThigh
    {
      OFFSET 0 -1.70687 -2.19456
      CHANNELS 3 Zrotation Xrotation Yrotation
      JOINT rShin
      {
        OFFSET 0 -36.8199 0.73152
        CHANNELS 3 Zrotation Xrotation Yrotation
        JOINT rFoot
        {
          OFFSET 0.73152 -45.1104 -5.12064
          CHANNELS 3 Zrotation Xrotation Yrotation
          End Site
          {
            OFFSET -1.1221 -3.69964 12.103
          }
        }
      }
    }
  }
  JOINT lButtock
  {
    OFFSET 8.77824 4.35084 1.2192
    CHANNELS 3 Zrotation Xrotation Yrotation
    JOINT lThigh
    {
      OFFSET 0 -1.70687 -2.19456
      CHANNELS 3 Zrotation Xrotation Yrotation
      JOINT lShin
      {
        OFFSET 0 -36.8199 0.73152
        CHANNELS 3 Zrotation Xrotation Yrotation
        JOINT lFoot
        {
          OFFSET -0.73152 -45.1104 -5.12064
          CHANNELS 3 Zrotation Xrotation Yrotation
          End Site
          {
            OFFSET 1.1221 -3.69964 12.103
          }
        }
      }
    }
  }
}
MOTION
Frames:	4
Frame Time:	0.03333
37.726930007338524 65.30049896240234 5.154999953811057 335.8990001678467 53.06019902229309 340.7799983024597 12.697400450706482 13.310499787330627 13.711099773645401 0.20760700106620789 -7.864959686994553 4.293469972908497 2.5442499294877052 14.130499362945557 15.682200193405151 -4.360000155866146 -20.464999973773956 29.977701008319855 0.0 0.0 0.0 0.0 0.0 0.0 0.0 5.115907697472721e-12 0.0 106.8060028553009 39.459999203681946 -53.3486008644104 -25.47949969768524 -47.216100096702576 98.18920254707336 -23.522900640964508 -74.5624977350235 -30.592600107192993 2.4735413717280608e-09 -7.929656931082718e-10 1.7394086171407253e-09 4.141327281104168e-09 -1.4017587091075256e-09 3.1309355108533055e-09 2.4735413717280608e-09 -7.929656931082718e-10 1.7394086171407253e-09 7.7309102565050125 5.474880114197731 0.41731400415301323 2.4735413717280608e-09 -7.929656931082718e-10 1.7394086171407253e-09 2.905540131032467 0.9651830233633518 0.102901995414868 2.4735413717280608e-09 -7.929656931082718e-10 1.7394086171407253e-09 10.27859978377819 0.7318009994924068 0.025912300043273717 2.4735413717280608e-09 -7.929656931082718e-10 1.7394086171407253e-09 2.221670038998127 -0.733487019315362 -0.2089200052432716 0.0 5.115907697472721e-12 0.0 -75.48409938812256 -11.048199981451035 -88.52820217609406 5.159400030970573 -1.682019978761673 -8.987859785556793 37.66479939222336 78.77999782562256 -45.111998319625854 9.326299732492771e-09 2.8956037567695603e-09 1.9952040020143613e-09 1.6015349046938354e-08 5.182414497539867e-09 2.772821972030215e-09 9.326299732492771e-09 2.8956037567695603e-09 1.9952040020143613e-09 -7.7309102565050125 5.474880114197731 -0.41731400415301323 9.326299732492771e-09 2.8956037567695603e-09 1.9952040020143613e-09 -2.905540131032467 0.9651830233633518 -0.102901995414868 9.326299732492771e-09 2.8956037567695603e-09 1.9952040020143613e-09 -10.27859978377819 0.7318009994924068 -0.025912300043273717 9.326299732492771e-09 2.8956037567695603e-09 1.9952040020143613e-09 -2.221670038998127 -0.733487019315362 0.2089200052432716 0.0 0.0 0.0 -2.4547600373625755 0.4001269955188036 -5.786800235509872 -0.26697700610384345 45.237799286842346 1.832090076059103 -15.163600444793701 -17.231999337673187 -32.01620131731033 0.0 0.0 0.0 65.49340188503265 -51.79200232028961 49.63970124721527 2.9892300814390182 74.21619772911072 -3.0911898985505104 -0.21232500672340393 -3.12049001455307 -3.894989937543869
37.769230008125305 65.29000091552734 5.161999954027124 335.7200002670288 53.00779938697815 340.6600069999695 12.924099415540695 13.27179953455925 13.63969936966896 0.26489200768992305 -7.84979984164238 4.285940006375313 2.493829932063818 14.14639949798584 15.767199397087097 -4.351700060069561 -20.37339985370636 30.148399472236633 0.0 0.0 0.0 0.0 0.0 0.0 0.0 0.0 0.0 107.05399990081787 39.758499562740326 -53.55130076408386 -25.60360014438629 -47.001598477363586 97.71409749984741 -21.28619983792305 -73.47080111503601 -28.266001045703888 1.2687451089732349e-09 -4.1950443119276315e-10 9.617906471248716e-10 2.120543740602443e-09 -7.418066161335446e-10 1.7291768017457798e-09 1.2687451089732349e-09 -4.1950443119276315e-10 9.617906471248716e-10 7.7309102565050125 5.474880114197731 0.41731400415301323 1.2687451089732349e-09 -4.1950443119276315e-10 9.617906471248716e-10 2.905540131032467 0.9651830233633518 0.102901995414868 1.2687451089732349e-09 -4.1950443119276315e-10 9.617906471248716e-10 10.27859978377819 0.7318009994924068 0.025912300043273717 1.2687451089732349e-09 -4.1950443119276315e-10 9.617906471248716e-10 2.221670038998127 -0.733487019315362 -0.2089200052432716 0.0 0.0 0.0 -76.19020164012909 -11.035299897193909 -88.5377025604248 5.131960026919842 -1.6708599776029587 -8.939219936728477 40.47879874706268 79.28689777851105 -47.97829806804657 5.330775820766576e-09 2.0514789866865613e-09 1.61662683240138e-09 9.190728178509744e-09 3.5862512959283777e-09 2.404476617812179e-09 5.330775820766576e-09 2.0514789866865613e-09 1.61662683240138e-09 -7.7309102565050125 5.474880114197731 -0.41731400415301323 5.330775820766576e-09 2.0514789866865613e-09 1.61662683240138e-09 -2.905540131032467 0.9651830233633518 -0.102901995414868 5.330775820766576e-09 2.0514789866865613e-09 1.61662683240138e-09 -10.27859978377819 0.7318009994924068 -0.025912300043273717 5.330775820766576e-09 2.0514789866865613e-09 1.61662683240138e-09 -2.221670038998127 -0.733487019315362 0.2089200052432716 0.0 0.0 0.0 -2.349389959126711 0.4277980048209429 -5.833490118384361 -0.2648749924264848 45.240797996520996 1.8348200619220734 -15.153200179338455 -17.318799644708633 -31.918700337409973 0.0 0.0 0.0 65.51029980182648 -51.83169901371002 49.52219903469086 3.00502996891737 74.271000623703 -3.1087399274110794 -0.16638799686916173 -3.2691799476742744 -3.598339967429638
37.81413000822067 65.27629852294922 5.131999954697676 335.43800354003906 52.98500061035156 340.4300022125244 13.175500184297562 13.18579986691475 13.597899824380875 0.30071399873122573 -7.84355029463768 4.28436990827322 2.4783899635076523 14.173000305891037 15.827900469303131 -4.350749887526035 -20.302600264549255 30.268801152706146 0.0 0.0 0.0 0.0 0.0 0.0 0.0 0.0 0.0 107.28500247001648 40.00869870185852 -53.7039989233017 -25.739199221134186 -46.760199666023254 97.18380331993103 -19.457799643278122 -72.43229806423187 -26.353599429130554 -6.215827852429356e-10 5.6274984672199935e-11 3.4788172342814505e-10 -1.084572431864217e-09 1.1254996934439987e-10 5.525180313270539e-10 -6.215827852429356e-10 5.6274984672199935e-11 3.4788172342814505e-10 7.7309102565050125 5.474880114197731 0.41731400415301323 -6.215827852429356e-10 5.6274984672199935e-11 3.4788172342814505e-10 2.905540131032467 0.9651830233633518 0.102901995414868 -6.215827852429356e-10 5.6274984672199935e-11 3.4788172342814505e-10 10.27859978377819 0.7318009994924068 0.025912300043273717 -6.215827852429356e-10 5.6274984672199935e-11 3.4788172342814505e-10 2.221670038998127 -0.733487019315362 -0.2089200052432716 0.0 0.0 0.0 -76.73980236053467 -10.934399887919426 -88.54359805583954 5.116100125014782 -1.6641700454056263 -8.911050036549568 43.02330046892166 79.68709945678711 -50.566200613975525 5.755396159656812e-10 7.725020623183809e-10 -1.0231815394945443e-10 9.796963240660261e-10 1.1971224012086168e-09 -2.0463630789890885e-10 5.755396159656812e-10 7.725020623183809e-10 -1.0231815394945443e-10 -7.7309102565050125 5.474880114197731 -0.41731400415301323 5.755396159656812e-10 7.725020623183809e-10 -1.0231815394945443e-10 -2.905540131032467 0.9651830233633518 -0.102901995414868 5.755396159656812e-10 7.725020623183809e-10 -1.0231815394945443e-10 -10.27859978377819 0.7318009994924068 -0.025912300043273717 5.755396159656812e-10 7.725020623183809e-10 -1.0231815394945443e-10 -2.221670038998127 -0.733487019315362 0.2089200052432716 0.0 0.0 0.0 -2.190759927034378 0.42185598984360695 -5.89212991297245 -0.2634220104664564 45.24770200252533 1.8398899398744106 -15.157600343227386 -17.40349978208542 -31.851800680160522 0.0 0.0 0.0 65.6426990032196 -51.93319916725159 49.508498311042786 3.0257101356983185 74.34270143508911 -3.1319299712777138 -0.11885400395840406 -3.3469901606440544 -3.321009948849678
37.86483000963926 65.24140167236328 5.044999957201071 335.2490043640137 53.03020119667053 340.35000801086426 13.309200257062912 13.019899874925613 13.538400381803513 0.3254260076209903 -7.797669768333435 4.268559962511063 2.443550080060959 14.138300567865372 15.863599330186844 -4.32675015181303 -20.246299356222153 30.345300436019897 0.0 0.0 0.0 0.0 0.0 0.0 0.0 0.0 0.0 107.45099902153015 40.213099122047424 -53.764702677726746 -25.88919907808304 -46.48439884185791 96.58309578895569 -17.99109935760498 -71.4833003282547 -24.811101257801056 -1.7573142940818798e-09 -5.6274984672199935e-11 2.0975221559638157e-09 -3.1309355108533055e-09 -5.6274984672199935e-11 3.4788172342814505e-09 -1.7573142940818798e-09 -5.6274984672199935e-11 2.0975221559638157e-09 7.7309102565050125 5.474880114197731 0.41731400415301323 -1.7573142940818798e-09 -5.6274984672199935e-11 2.0975221559638157e-09 2.905540131032467 0.9651830233633518 0.102901995414868 -1.7573142940818798e-09 -5.6274984672199935e-11 2.0975221559638157e-09 10.27859978377819 0.7318009994924068 0.025912300043273717 -1.7573142940818798e-09 -5.6274984672199935e-11 2.0975221559638157e-09 2.221670038998127 -0.733487019315362 -0.2089200052432716 0.0 0.0 0.0 -77.31699764728546 -10.798600316047668 -88.59620153903961 5.112559944391251 -1.6611099801957607 -8.904569819569588 45.94080090522766 80.08689880371094 -53.52969825267792 4.583853296935558e-09 2.092406248266343e-09 -2.7114310796605423e-09 7.620144515385618e-09 3.2946445571724325e-09 -4.931735020363703e-09 4.583853296935558e-09 2.092406248266343e-09 -2.7114310796605423e-09 -7.7309102565050125 5.474880114197731 -0.41731400415301323 4.583853296935558e-09 2.092406248266343e-09 -2.7114310796605423e-09 -2.905540131032467 0.9651830233633518 -0.102901995414868 4.583853296935558e-09 2.092406248266343e-09 -2.7114310796605423e-09 -10.27859978377819 0.7318009994924068 -0.025912300043273717 4.583853296935558e-09 2.092406248266343e-09 -2.7114310796605423e-09 -2.221670038998127 -0.733487019315362 0.2089200052432716 0.0 0.0 0.0 -2.2216100245714188 0.3912430163472891 -6.075110211968422 -0.2648689993657172 45.22280037403107 1.8443400599062443 -15.18310010433197 -17.499600648880005 -31.81150048971176 0.0 0.0 0.0 65.52189767360687 -52.23780155181885 49.33789908885956 3.0484499037265778 74.43099975585938 -3.155439868569374 -0.0409584998851642 -3.3255499228835106 -2.9157600179314613
